<?xml version="1.0" encoding="UTF-8"?>

<svg version="1.2" baseProfile="tiny" width="297mm" height="210mm" viewBox="0 0 29700 21000" preserveAspectRatio="xMidYMid" fill-rule="evenodd" clip-path="url(#presentation_clip_path)" stroke-width="28.222" stroke-linejoin="round" xmlns="http://www.w3.org/2000/svg" xmlns:ooo="http://xml.openoffice.org/svg/export" xmlns:xlink="http://www.w3.org/1999/xlink" xml:space="preserve">
 <defs class="ClipPathGroup">
  <clipPath id="presentation_clip_path" clipPathUnits="userSpaceOnUse">
   <rect x="0" y="0" width="29700" height="21000"/>
  </clipPath>
 </defs>
 <defs class="TextShapeIndex">
  <g ooo:slide="id1" ooo:id-list="id3 id4 id5 id6 id7 id8 id9 id10 id11 id12 id13 id14 id15 id16 id17 id18 id19 id20 id21 id22 id23 id24 id25 id26 id27 id28 id29 id30 id31 id32 id33 id34 id35 id36 id37 id38 id39 id40 id41 id42 id43 id44 id45 id46 id47 id48 id49 id50 id51 id52 id53"/>
 </defs>
 <defs class="EmbeddedBulletChars">
  <g id="bullet-char-template(57356)" transform="scale(0.00048828125,-0.00048828125)">
   <path d="M 580,1141 L 1163,571 580,0 -4,571 580,1141 Z"/>
  </g>
  <g id="bullet-char-template(57354)" transform="scale(0.00048828125,-0.00048828125)">
   <path d="M 8,1128 L 1137,1128 1137,0 8,0 8,1128 Z"/>
  </g>
  <g id="bullet-char-template(10146)" transform="scale(0.00048828125,-0.00048828125)">
   <path d="M 174,0 L 602,739 174,1481 1456,739 174,0 Z M 1358,739 L 309,1346 659,739 1358,739 Z"/>
  </g>
  <g id="bullet-char-template(10132)" transform="scale(0.00048828125,-0.00048828125)">
   <path d="M 2015,739 L 1276,0 717,0 1260,543 174,543 174,936 1260,936 717,1481 1274,1481 2015,739 Z"/>
  </g>
  <g id="bullet-char-template(10007)" transform="scale(0.00048828125,-0.00048828125)">
   <path d="M 0,-2 C -7,14 -16,27 -25,37 L 356,567 C 262,823 215,952 215,954 215,979 228,992 255,992 264,992 276,990 289,987 310,991 331,999 354,1012 L 381,999 492,748 772,1049 836,1024 860,1049 C 881,1039 901,1025 922,1006 886,937 835,863 770,784 769,783 710,716 594,584 L 774,223 C 774,196 753,168 711,139 L 727,119 C 717,90 699,76 672,76 641,76 570,178 457,381 L 164,-76 C 142,-110 111,-127 72,-127 30,-127 9,-110 8,-76 1,-67 -2,-52 -2,-32 -2,-23 -1,-13 0,-2 Z"/>
  </g>
  <g id="bullet-char-template(10004)" transform="scale(0.00048828125,-0.00048828125)">
   <path d="M 285,-33 C 182,-33 111,30 74,156 52,228 41,333 41,471 41,549 55,616 82,672 116,743 169,778 240,778 293,778 328,747 346,684 L 369,508 C 377,444 397,411 428,410 L 1163,1116 C 1174,1127 1196,1133 1229,1133 1271,1133 1292,1118 1292,1087 L 1292,965 C 1292,929 1282,901 1262,881 L 442,47 C 390,-6 338,-33 285,-33 Z"/>
  </g>
  <g id="bullet-char-template(9679)" transform="scale(0.00048828125,-0.00048828125)">
   <path d="M 813,0 C 632,0 489,54 383,161 276,268 223,411 223,592 223,773 276,916 383,1023 489,1130 632,1184 813,1184 992,1184 1136,1130 1245,1023 1353,916 1407,772 1407,592 1407,412 1353,268 1245,161 1136,54 992,0 813,0 Z"/>
  </g>
  <g id="bullet-char-template(8226)" transform="scale(0.00048828125,-0.00048828125)">
   <path d="M 346,457 C 273,457 209,483 155,535 101,586 74,649 74,723 74,796 101,859 155,911 209,963 273,989 346,989 419,989 480,963 531,910 582,859 608,796 608,723 608,648 583,586 532,535 482,483 420,457 346,457 Z"/>
  </g>
  <g id="bullet-char-template(8211)" transform="scale(0.00048828125,-0.00048828125)">
   <path d="M -4,459 L 1135,459 1135,606 -4,606 -4,459 Z"/>
  </g>
 </defs>
 <defs class="TextEmbeddedBitmaps"/>
 <g>
  <g id="id2" class="Master_Slide">
   <g id="bg-id2" class="Background"/>
   <g id="bo-id2" class="BackgroundObjects"/>
  </g>
 </g>
 <g class="SlideGroup">
  <g>
   <g id="id1" class="Slide" clip-path="url(#presentation_clip_path)">
    <g class="Page">
     <g class="com.sun.star.drawing.ClosedBezierShape">
      <g id="id3">
       <defs>
        <mask id="mask1">
         <g>
          <defs>
           <linearGradient id="gradient1" x1="13823" y1="3377" x2="13823" y2="9687" gradientUnits="userSpaceOnUse">
            <stop offset="0.5" style="stop-color:rgb(217,217,217)"/>
            <stop offset="0.5" style="stop-color:rgb(217,217,217)"/>
            <stop offset="1" style="stop-color:rgb(217,217,217)"/>
            <stop offset="1" style="stop-color:rgb(217,217,217)"/>
           </linearGradient>
          </defs>
          <path style="fill:url(#gradient1)" d="M 12000,3377 L 15647,3377 15647,9687 12000,9687 12000,3377 Z"/>
         </g>
        </mask>
       </defs>
       <g style="mask:url(#mask1)">
        <g>
         <defs>
          <linearGradient id="gradient2" x1="12912" y1="3132" x2="14734" y2="9932" gradientUnits="userSpaceOnUse">
           <stop offset="0" style="stop-color:rgb(32,74,135)"/>
           <stop offset="1" style="stop-color:rgb(114,159,207)"/>
          </linearGradient>
         </defs>
         <path style="fill:url(#gradient2)" d="M 12700,9687 L 12555,9370 12422,9025 12303,8659 12200,8281 12116,7898 12053,7518 12014,7150 12000,6800 12047,6303 12060,6192 12067,6155 12075,6125 12300,5600 12478,5299 12638,5064 12778,4888 12841,4820 12900,4763 12954,4716 13003,4679 13048,4651 13088,4630 13123,4615 13153,4606 13179,4601 13200,4600 13561,4217 13897,3897 14056,3763 14209,3647 14357,3551 14500,3475 14638,3420 14772,3387 14838,3379 14902,3377 14966,3381 15028,3391 15090,3407 15151,3429 15211,3457 15270,3493 15386,3583 15500,3700 15565,3923 15610,4141 15637,4357 15647,4570 15642,4782 15623,4993 15550,5419 15439,5853 15303,6305 15000,7287 14500,9387 14000,9387 13300,9587 12700,9687 Z"/>
        </g>
       </g>
       <path fill="none" stroke="rgb(0,0,0)" d="M 12700,9687 C 12300,8887 12000,7700 12000,6800 12100,5800 12000,6400 12300,5600 12800,4700 13100,4600 13200,4600 14200,3500 14900,3000 15500,3700 15900,4900 15400,5887 15000,7287 L 14500,9387 14000,9387 13300,9587 12700,9687 Z"/>
      </g>
     </g>
     <g class="com.sun.star.drawing.CustomShape">
      <g id="id4">
       <path fill="rgb(128,128,128)" stroke="none" d="M 15350,9600 C 18667,9600 21200,11180 21200,13249 21200,15318 18667,16899 15350,16899 12033,16899 9500,15318 9500,13249 9500,11180 12033,9600 15350,9600 Z M 9500,9600 L 9500,9600 Z M 21201,16901 L 21201,16901 Z"/>
       <path fill="none" stroke="rgb(128,128,128)" stroke-width="100" stroke-linejoin="round" d="M 15350,9600 C 18667,9600 21200,11180 21200,13249 21200,15318 18667,16899 15350,16899 12033,16899 9500,15318 9500,13249 9500,11180 12033,9600 15350,9600 Z"/>
       <path fill="rgb(255,211,32)" stroke="none" d="M 15150,9400 C 18467,9400 21000,10980 21000,13049 21000,15118 18467,16699 15150,16699 11833,16699 9300,15118 9300,13049 9300,10980 11833,9400 15150,9400 Z M 9300,9400 L 9300,9400 Z M 21001,16701 L 21001,16701 Z"/>
       <path fill="none" stroke="rgb(0,0,0)" stroke-width="100" stroke-linejoin="round" d="M 15150,9400 C 18467,9400 21000,10980 21000,13049 21000,15118 18467,16699 15150,16699 11833,16699 9300,15118 9300,13049 9300,10980 11833,9400 15150,9400 Z"/>
      </g>
     </g>
     <g class="com.sun.star.drawing.CustomShape">
      <g id="id5">
       <path fill="rgb(128,128,128)" stroke="none" d="M 9564,8763 C 11322,8731 12665,9855 12665,11357 12665,12859 11322,14031 9564,14062 7806,14094 6464,12969 6464,11467 6464,9965 7806,8794 9564,8763 Z M 6464,8818 L 6464,8818 Z M 12666,14008 L 12666,14008 Z"/>
       <path fill="none" stroke="rgb(128,128,128)" stroke-width="200" stroke-linejoin="round" d="M 9564,8763 C 11322,8731 12665,9855 12665,11357 12665,12859 11322,14031 9564,14062 7806,14094 6464,12969 6464,11467 6464,9965 7806,8794 9564,8763 Z"/>
       <path fill="rgb(255,211,32)" stroke="none" d="M 9364,8563 C 11122,8531 12465,9655 12465,11157 12465,12659 11122,13831 9364,13862 7606,13894 6264,12769 6264,11267 6264,9765 7606,8594 9364,8563 Z M 6264,8618 L 6264,8618 Z M 12466,13808 L 12466,13808 Z"/>
       <path fill="none" stroke="rgb(0,0,0)" stroke-width="200" stroke-linejoin="round" d="M 9364,8563 C 11122,8531 12465,9655 12465,11157 12465,12659 11122,13831 9364,13862 7606,13894 6264,12769 6264,11267 6264,9765 7606,8594 9364,8563 Z"/>
      </g>
     </g>
     <g class="com.sun.star.drawing.CustomShape">
      <g id="id6">
       <path fill="rgb(255,255,255)" stroke="none" d="M 7842,7862 C 8324,8033 8509,8694 8267,9387 8025,10080 7471,10479 6988,10308 6506,10137 6321,9476 6563,8783 6805,8090 7359,7691 7842,7862 Z M 6990,7560 L 6990,7560 Z M 7841,10611 L 7841,10611 Z"/>
       <path fill="none" stroke="rgb(52,101,164)" d="M 7842,7862 C 8324,8033 8509,8694 8267,9387 8025,10080 7471,10479 6988,10308 6506,10137 6321,9476 6563,8783 6805,8090 7359,7691 7842,7862 Z"/>
       <path fill="none" stroke="rgb(52,101,164)" d="M 6990,7560 L 6990,7560 Z"/>
       <path fill="none" stroke="rgb(52,101,164)" d="M 7841,10611 L 7841,10611 Z"/>
      </g>
     </g>
     <g class="com.sun.star.drawing.CustomShape">
      <g id="id7">
       <path fill="rgb(255,255,255)" stroke="none" d="M 10183,7318 C 10815,7569 11003,8505 10615,9480 10228,10455 9449,11007 8817,10756 8185,10505 7997,9569 8385,8594 8772,7619 9551,7067 10183,7318 Z M 9068,6875 L 9068,6875 Z M 9933,11201 L 9933,11201 Z"/>
       <path fill="none" stroke="rgb(52,101,164)" d="M 10183,7318 C 10815,7569 11003,8505 10615,9480 10228,10455 9449,11007 8817,10756 8185,10505 7997,9569 8385,8594 8772,7619 9551,7067 10183,7318 Z"/>
       <path fill="none" stroke="rgb(52,101,164)" d="M 9068,6875 L 9068,6875 Z"/>
       <path fill="none" stroke="rgb(52,101,164)" d="M 9933,11201 L 9933,11201 Z"/>
      </g>
     </g>
     <g class="com.sun.star.drawing.CustomShape">
      <g id="id8">
       <path fill="rgb(0,0,0)" stroke="none" d="M 7350,8787 C 7548,8787 7700,9069 7700,9437 7700,9805 7548,10087 7350,10087 7152,10087 7000,9805 7000,9437 7000,9069 7152,8787 7350,8787 Z M 7000,8787 L 7000,8787 Z M 7701,10088 L 7701,10088 Z"/>
      </g>
     </g>
     <g class="com.sun.star.drawing.CustomShape">
      <g id="id9">
       <path fill="rgb(0,0,0)" stroke="none" d="M 9250,8787 C 9562,8787 9800,9112 9800,9537 9800,9962 9562,10287 9250,10287 8938,10287 8700,9962 8700,9537 8700,9112 8938,8787 9250,8787 Z M 8700,8787 L 8700,8787 Z M 9801,10288 L 9801,10288 Z"/>
      </g>
     </g>
     <g class="com.sun.star.drawing.OpenBezierShape">
      <g id="id10">
       <path fill="none" stroke="rgb(0,0,0)" stroke-width="100" stroke-linejoin="round" d="M 7300,11887 C 9900,13587 9600,11420 10800,11287"/>
      </g>
     </g>
     <g class="com.sun.star.drawing.CustomShape">
      <g id="id11">
       <path fill="rgb(255,255,255)" stroke="none" d="M 7650,8887 C 7792,8887 7900,9039 7900,9237 7900,9435 7792,9587 7650,9587 7508,9587 7400,9435 7400,9237 7400,9039 7508,8887 7650,8887 Z M 7400,8887 L 7400,8887 Z M 7901,9588 L 7901,9588 Z"/>
      </g>
     </g>
     <g class="com.sun.star.drawing.CustomShape">
      <g id="id12">
       <path fill="rgb(255,255,255)" stroke="none" d="M 9550,8887 C 9692,8887 9800,9039 9800,9237 9800,9435 9692,9587 9550,9587 9408,9587 9300,9435 9300,9237 9300,9039 9408,8887 9550,8887 Z M 9300,8887 L 9300,8887 Z M 9801,9588 L 9801,9588 Z"/>
      </g>
     </g>
     <g class="com.sun.star.drawing.OpenBezierShape">
      <g id="id13">
       <path fill="none" stroke="rgb(0,0,0)" stroke-width="100" stroke-linejoin="round" d="M 10700,10987 C 10900,11187 10967,11254 11000,11487"/>
      </g>
     </g>
     <g class="com.sun.star.drawing.OpenBezierShape">
      <g id="id14">
       <path fill="none" stroke="rgb(0,0,0)" stroke-width="100" stroke-linejoin="round" d="M 7700,7787 C 7500,6287 7500,5787 8400,4587"/>
      </g>
     </g>
     <g class="com.sun.star.drawing.OpenBezierShape">
      <g id="id15">
       <path fill="none" stroke="rgb(0,0,0)" stroke-width="100" stroke-linejoin="round" d="M 10200,7287 C 9700,5587 11233,5687 11600,4587"/>
      </g>
     </g>
     <g class="com.sun.star.drawing.CustomShape">
      <g id="id16">
       <path fill="rgb(255,149,14)" stroke="none" d="M 8650,4087 C 8848,4087 9000,4217 9000,4387 9000,4557 8848,4687 8650,4687 8452,4687 8300,4557 8300,4387 8300,4217 8452,4087 8650,4087 Z M 8300,4087 L 8300,4087 Z M 9001,4688 L 9001,4688 Z"/>
       <path fill="none" stroke="rgb(0,0,0)" stroke-width="100" stroke-linejoin="round" d="M 8650,4087 C 8848,4087 9000,4217 9000,4387 9000,4557 8848,4687 8650,4687 8452,4687 8300,4557 8300,4387 8300,4217 8452,4087 8650,4087 Z"/>
      </g>
     </g>
     <g class="com.sun.star.drawing.CustomShape">
      <g id="id17">
       <path fill="rgb(255,149,14)" stroke="none" d="M 11850,3887 C 12105,3887 12300,4039 12300,4237 12300,4435 12105,4587 11850,4587 11595,4587 11400,4435 11400,4237 11400,4039 11595,3887 11850,3887 Z M 11400,3887 L 11400,3887 Z M 12301,4588 L 12301,4588 Z"/>
       <path fill="none" stroke="rgb(0,0,0)" stroke-width="100" stroke-linejoin="round" d="M 11850,3887 C 12105,3887 12300,4039 12300,4237 12300,4435 12105,4587 11850,4587 11595,4587 11400,4435 11400,4237 11400,4039 11595,3887 11850,3887 Z"/>
      </g>
     </g>
     <g class="com.sun.star.drawing.ClosedBezierShape">
      <g id="id18">
       <path fill="rgb(0,0,0)" stroke="none" d="M 11500,13187 C 10800,13687 10167,13820 9500,13987 10100,15087 10367,15020 10600,15387 L 11500,13187 Z"/>
       <path fill="none" stroke="rgb(0,0,0)" stroke-width="100" stroke-linejoin="round" d="M 11500,13187 C 10800,13687 10167,13820 9500,13987 10100,15087 10367,15020 10600,15387 L 11500,13187 Z"/>
      </g>
     </g>
     <g class="com.sun.star.drawing.ClosedBezierShape">
      <g id="id19">
       <path fill="rgb(0,0,0)" stroke="none" d="M 11700,16043 C 12325,13726 13500,12043 13400,9543 13711,9738 14789,9292 15100,9487 15295,11987 14100,14543 13400,16643 13089,16448 12011,16238 11700,16043 Z"/>
       <path fill="none" stroke="rgb(0,0,0)" stroke-width="100" stroke-linejoin="round" d="M 11700,16043 C 12325,13726 13500,12043 13400,9543 13711,9738 14789,9292 15100,9487 15295,11987 14100,14543 13400,16643 13089,16448 12011,16238 11700,16043 Z"/>
      </g>
     </g>
     <g class="com.sun.star.drawing.ClosedBezierShape">
      <g id="id20">
       <path fill="rgb(0,0,0)" stroke="none" d="M 15000,16587 C 15625,14270 16700,11987 16600,9487 16911,9682 17789,9692 18100,9887 18295,12387 17400,14487 16700,16587 16389,16392 15311,16782 15000,16587 Z"/>
       <path fill="none" stroke="rgb(0,0,0)" stroke-width="100" stroke-linejoin="round" d="M 15000,16587 C 15625,14270 16700,11987 16600,9487 16911,9682 17789,9692 18100,9887 18295,12387 17400,14487 16700,16587 16389,16392 15311,16782 15000,16587 Z"/>
      </g>
     </g>
     <g class="com.sun.star.drawing.ClosedBezierShape">
      <g id="id21">
       <path fill="rgb(0,0,0)" stroke="none" d="M 17896,16264 C 18521,13947 19400,12987 19300,10487 19611,10682 20200,10987 20400,11487 19900,13887 20096,13464 19396,15564 19100,15687 18200,16187 17896,16264 Z"/>
       <path fill="none" stroke="rgb(0,0,0)" stroke-width="100" stroke-linejoin="round" d="M 17896,16264 C 18521,13947 19400,12987 19300,10487 19611,10682 20200,10987 20400,11487 19900,13887 20096,13464 19396,15564 19100,15687 18200,16187 17896,16264 Z"/>
      </g>
     </g>
     <g class="com.sun.star.drawing.ClosedBezierShape">
      <g id="id22">
       <path fill="rgb(0,0,0)" stroke="none" d="M 21000,13287 C 20900,13687 20900,13587 22000,13587 22200,13387 22600,13387 22700,13287 L 21000,13287 Z"/>
       <path fill="none" stroke="rgb(0,0,0)" stroke-width="100" stroke-linejoin="round" d="M 21000,13287 C 20900,13687 20900,13587 22000,13587 22200,13387 22600,13387 22700,13287 L 21000,13287 Z"/>
      </g>
     </g>
     <g class="com.sun.star.drawing.PolyPolygonShape">
      <g id="id23">
       <path fill="rgb(0,0,0)" stroke="none" d="M 20768,12697 L 20801,12201 20836,12198 20796,12190 20830,12194 20832,12199 20809,12204 20822,12216 20833,12232 20843,12251 20861,12298 20875,12355 20886,12422 20894,12498 20900,12670 20896,12863 20954,13127 20893,13349 20863,13445 20850,13689 20775,13797 20806,13847 20750,13876 20746,13884 20742,13890 20739,13894 20738,13895 20736,13896 20735,13897 20733,13897 20732,13896 20791,13888 20720,13941 20766,13981 20723,14073 20656,14161 20621,14250 20533,14330 20490,14416 20471,14460 20455,14504 20441,14549 20431,14595 20531,13995 20631,13395 20768,12697 Z"/>
       <path fill="none" stroke="rgb(0,0,0)" stroke-width="100" stroke-linejoin="round" d="M 20768,12697 L 20801,12201 20836,12198 20796,12190 20830,12194 20832,12199 20809,12204 20822,12216 20833,12232 20843,12251 20861,12298 20875,12355 20886,12422 20894,12498 20900,12670 20896,12863 20954,13127 20893,13349 20863,13445 20850,13689 20775,13797 20806,13847 20750,13876 20746,13884 20742,13890 20739,13894 20738,13895 20736,13896 20735,13897 20733,13897 20732,13896 20791,13888 20720,13941 20766,13981 20723,14073 20656,14161 20621,14250 20533,14330 20490,14416 20471,14460 20455,14504 20441,14549 20431,14595 20531,13995 20631,13395 20768,12697 Z"/>
      </g>
     </g>
     <g class="com.sun.star.drawing.LineShape">
      <g id="id24">
       <path fill="none" stroke="rgb(0,0,0)" stroke-width="100" stroke-linejoin="round" d="M 20900,13587 L 21300,13587"/>
      </g>
     </g>
     <g class="com.sun.star.drawing.LineShape">
      <g id="id25">
       <path fill="none" stroke="rgb(0,0,0)" d="M 8100,4287 L 7600,4187"/>
      </g>
     </g>
     <g class="com.sun.star.drawing.LineShape">
      <g id="id26">
       <path fill="none" stroke="rgb(0,0,0)" d="M 8400,3887 L 8200,3387"/>
      </g>
     </g>
     <g class="com.sun.star.drawing.LineShape">
      <g id="id27">
       <path fill="none" stroke="rgb(0,0,0)" d="M 8900,3887 L 9100,3187"/>
      </g>
     </g>
     <g class="com.sun.star.drawing.LineShape">
      <g id="id28">
       <path fill="none" stroke="rgb(0,0,0)" d="M 9200,4187 L 9900,4087"/>
      </g>
     </g>
     <g class="com.sun.star.drawing.LineShape">
      <g id="id29">
       <path fill="none" stroke="rgb(0,0,0)" d="M 9100,4687 L 9600,5087"/>
      </g>
     </g>
     <g class="com.sun.star.drawing.LineShape">
      <g id="id30">
       <path fill="none" stroke="rgb(0,0,0)" d="M 8700,4887 L 8600,5387"/>
      </g>
     </g>
     <g class="com.sun.star.drawing.LineShape">
      <g id="id31">
       <path fill="none" stroke="rgb(0,0,0)" d="M 11300,4487 L 10900,4687"/>
      </g>
     </g>
     <g class="com.sun.star.drawing.LineShape">
      <g id="id32">
       <path fill="none" stroke="rgb(0,0,0)" d="M 11300,3987 L 10700,3887"/>
      </g>
     </g>
     <g class="com.sun.star.drawing.LineShape">
      <g id="id33">
       <path fill="none" stroke="rgb(0,0,0)" d="M 11500,3687 L 11300,3287"/>
      </g>
     </g>
     <g class="com.sun.star.drawing.LineShape">
      <g id="id34">
       <path fill="none" stroke="rgb(0,0,0)" d="M 12000,3687 L 12100,3187"/>
      </g>
     </g>
     <g class="com.sun.star.drawing.LineShape">
      <g id="id35">
       <path fill="none" stroke="rgb(0,0,0)" d="M 12400,3987 L 12900,3587"/>
      </g>
     </g>
     <g class="com.sun.star.drawing.LineShape">
      <g id="id36">
       <path fill="none" stroke="rgb(0,0,0)" d="M 12500,4287 L 13300,4487"/>
      </g>
     </g>
     <g class="com.sun.star.drawing.LineShape">
      <g id="id37">
       <path fill="none" stroke="rgb(0,0,0)" d="M 12300,4687 L 12600,4987"/>
      </g>
     </g>
     <g class="com.sun.star.drawing.LineShape">
      <g id="id38">
       <path fill="none" stroke="rgb(0,0,0)" d="M 11900,4787 L 11900,5387"/>
      </g>
     </g>
     <g class="com.sun.star.drawing.OpenBezierShape">
      <g id="id39">
       <path fill="none" stroke="rgb(0,0,0)" d="M 14200,9187 L 14000,8187 C 13900,7587 14067,7454 14100,7087"/>
      </g>
     </g>
     <g class="com.sun.star.drawing.OpenBezierShape">
      <g id="id40">
       <path fill="none" stroke="rgb(0,0,0)" d="M 13300,9287 C 13200,7987 12900,8287 12900,7387"/>
      </g>
     </g>
     <g class="com.sun.star.drawing.ClosedBezierShape">
      <g id="id41">
       <defs>
        <mask id="mask2">
         <g>
          <defs>
           <linearGradient id="gradient3" x1="17208" y1="4028" x2="17208" y2="10587" gradientUnits="userSpaceOnUse">
            <stop offset="0.5" style="stop-color:rgb(217,217,217)"/>
            <stop offset="0.5" style="stop-color:rgb(217,217,217)"/>
            <stop offset="1" style="stop-color:rgb(217,217,217)"/>
            <stop offset="1" style="stop-color:rgb(217,217,217)"/>
           </linearGradient>
          </defs>
          <path style="fill:url(#gradient3)" d="M 14400,4028 L 20017,4028 20017,10587 14400,10587 14400,4028 Z"/>
         </g>
        </mask>
       </defs>
       <g style="mask:url(#mask2)">
        <g>
         <defs>
          <linearGradient id="gradient4" x1="16200" y1="3546" x2="18216" y2="11069" gradientUnits="userSpaceOnUse">
           <stop offset="0" style="stop-color:rgb(32,74,135)"/>
           <stop offset="1" style="stop-color:rgb(114,159,207)"/>
          </linearGradient>
         </defs>
         <path style="fill:url(#gradient4)" d="M 14400,10587 L 15722,7455 15943,6889 15986,6767 15996,6735 16000,6718 16000,6715 16000,6714 16000,6714 16000,6713 16000,6714 15999,6714 15998,6714 15997,6717 15992,6727 15988,6738 15986,6749 15985,6753 15986,6755 15986,6756 15987,6757 15988,6757 15990,6757 15992,6756 15997,6752 16003,6745 16051,6679 16142,6533 16500,5900 16781,5508 17061,5157 17337,4850 17609,4589 17876,4375 18135,4211 18385,4098 18506,4061 18625,4038 18741,4028 18853,4033 18963,4051 19068,4085 19171,4133 19269,4195 19363,4274 19453,4367 19539,4476 19620,4602 19768,4901 19895,5266 20000,5700 20017,6521 19992,7194 19927,7736 19820,8165 19752,8342 19673,8497 19584,8632 19485,8749 19376,8851 19256,8938 19127,9014 18987,9081 18678,9195 18329,9296 17511,9528 17042,9693 16534,9914 15987,10206 15400,10587 14400,10587 Z"/>
        </g>
       </g>
       <path fill="none" stroke="rgb(0,0,0)" d="M 14400,10587 C 17200,4087 15167,8333 16500,5900 18000,3700 19500,3200 20000,5700 20200,10500 18633,8287 15400,10587 L 14400,10587 Z"/>
      </g>
     </g>
     <g class="com.sun.star.drawing.OpenBezierShape">
      <g id="id42">
       <path fill="none" stroke="rgb(0,0,0)" d="M 15400,10387 C 15800,9387 15300,10287 16000,9287 17100,6887 16733,7920 17700,6887"/>
      </g>
     </g>
     <g class="com.sun.star.drawing.OpenBezierShape">
      <g id="id43">
       <path fill="none" stroke="rgb(0,0,0)" d="M 16100,9887 C 16500,8887 16400,9887 17100,8887 18200,6487 18100,8287 19400,7387"/>
      </g>
     </g>
     <g class="com.sun.star.drawing.OpenBezierShape">
      <g id="id44">
       <path fill="none" stroke="rgb(0,0,0)" d="M 13300,3200 C 13800,2900 14400,2700 14400,2700 14400,2700 14800,2100 15700,2000"/>
      </g>
     </g>
     <g class="com.sun.star.drawing.OpenBezierShape">
      <g id="id45">
       <path fill="none" stroke="rgb(0,0,0)" d="M 12800,2900 C 13500,2613 14200,2200 14200,2200 14200,2200 14700,1600 15300,1500"/>
      </g>
     </g>
     <g class="com.sun.star.drawing.OpenBezierShape">
      <g id="id46">
       <path fill="none" stroke="rgb(0,0,0)" d="M 20300,5100 C 20300,4200 20000,4100 20000,4100 20000,4100 19800,3600 18900,3500"/>
      </g>
     </g>
     <g class="com.sun.star.drawing.OpenBezierShape">
      <g id="id47">
       <path fill="none" stroke="rgb(0,0,0)" d="M 20900,4800 C 20900,3900 20600,3800 20600,3800 20600,3800 20400,3300 19500,3200"/>
      </g>
     </g>
     <g class="com.sun.star.drawing.CustomShape">
      <g id="id48">
       <path fill="rgb(128,128,128)" stroke="none" d="M 16199,17300 C 16652,17300 16999,17646 16999,18099 16999,18552 16652,18899 16199,18899 15746,18899 15400,18552 15400,18099 15400,17646 15746,17300 16199,17300 Z M 15400,17300 L 15400,17300 Z M 17001,18901 L 17001,18901 Z"/>
       <path fill="none" stroke="rgb(128,128,128)" stroke-width="200" stroke-linejoin="round" d="M 16199,17300 C 16652,17300 16999,17646 16999,18099 16999,18552 16652,18899 16199,18899 15746,18899 15400,18552 15400,18099 15400,17646 15746,17300 16199,17300 Z"/>
       <path fill="rgb(204,153,102)" stroke="none" d="M 15999,17100 C 16452,17100 16799,17446 16799,17899 16799,18352 16452,18699 15999,18699 15546,18699 15200,18352 15200,17899 15200,17446 15546,17100 15999,17100 Z M 15200,17100 L 15200,17100 Z M 16801,18701 L 16801,18701 Z"/>
       <path fill="none" stroke="rgb(0,0,0)" stroke-width="200" stroke-linejoin="round" d="M 15999,17100 C 16452,17100 16799,17446 16799,17899 16799,18352 16452,18699 15999,18699 15546,18699 15200,18352 15200,17899 15200,17446 15546,17100 15999,17100 Z"/>
      </g>
     </g>
     <g class="com.sun.star.drawing.CustomShape">
      <g id="id49">
       <path fill="rgb(128,128,128)" stroke="none" d="M 18750,17000 C 19232,17000 19600,17325 19600,17750 19600,18175 19232,18500 18750,18500 18268,18500 17900,18175 17900,17750 17900,17325 18268,17000 18750,17000 Z M 17900,17000 L 17900,17000 Z M 19601,18501 L 19601,18501 Z"/>
       <path fill="none" stroke="rgb(128,128,128)" stroke-width="200" stroke-linejoin="round" d="M 18750,17000 C 19232,17000 19600,17325 19600,17750 19600,18175 19232,18500 18750,18500 18268,18500 17900,18175 17900,17750 17900,17325 18268,17000 18750,17000 Z"/>
       <path fill="rgb(204,153,102)" stroke="none" d="M 18550,16800 C 19032,16800 19400,17125 19400,17550 19400,17975 19032,18300 18550,18300 18068,18300 17700,17975 17700,17550 17700,17125 18068,16800 18550,16800 Z M 17700,16800 L 17700,16800 Z M 19401,18301 L 19401,18301 Z"/>
       <path fill="none" stroke="rgb(0,0,0)" stroke-width="200" stroke-linejoin="round" d="M 18550,16800 C 19032,16800 19400,17125 19400,17550 19400,17975 19032,18300 18550,18300 18068,18300 17700,17975 17700,17550 17700,17125 18068,16800 18550,16800 Z"/>
      </g>
     </g>
     <g class="com.sun.star.drawing.CustomShape">
      <g id="id50">
       <path fill="rgb(128,128,128)" stroke="none" d="M 21150,15500 C 21688,15500 22100,15825 22100,16250 22100,16675 21688,17000 21150,17000 20612,17000 20200,16675 20200,16250 20200,15825 20612,15500 21150,15500 Z M 20200,15500 L 20200,15500 Z M 22101,17001 L 22101,17001 Z"/>
       <path fill="none" stroke="rgb(128,128,128)" stroke-width="200" stroke-linejoin="round" d="M 21150,15500 C 21688,15500 22100,15825 22100,16250 22100,16675 21688,17000 21150,17000 20612,17000 20200,16675 20200,16250 20200,15825 20612,15500 21150,15500 Z"/>
       <path fill="rgb(204,153,102)" stroke="none" d="M 20950,15300 C 21488,15300 21900,15625 21900,16050 21900,16475 21488,16800 20950,16800 20412,16800 20000,16475 20000,16050 20000,15625 20412,15300 20950,15300 Z M 20000,15300 L 20000,15300 Z M 21901,16801 L 21901,16801 Z"/>
       <path fill="none" stroke="rgb(0,0,0)" stroke-width="200" stroke-linejoin="round" d="M 20950,15300 C 21488,15300 21900,15625 21900,16050 21900,16475 21488,16800 20950,16800 20412,16800 20000,16475 20000,16050 20000,15625 20412,15300 20950,15300 Z"/>
      </g>
     </g>
     <g class="com.sun.star.drawing.ClosedBezierShape">
      <g id="id51">
       <path fill="rgb(255,149,14)" stroke="none" d="M 15700,17100 C 15700,16500 16427,14411 16500,14200 16497,14198 16494,14195 16491,14193 L 16600,14300 16800,14600 C 16400,15100 16241,16765 16200,17000 L 15700,17100 Z"/>
       <path fill="none" stroke="rgb(0,0,0)" stroke-width="100" stroke-linejoin="round" d="M 15700,17100 C 15700,16500 16427,14411 16500,14200 16497,14198 16494,14195 16491,14193 L 16600,14300 16800,14600 C 16400,15100 16241,16765 16200,17000 L 15700,17100 Z"/>
      </g>
     </g>
     <g class="com.sun.star.drawing.ClosedBezierShape">
      <g id="id52">
       <path fill="rgb(255,149,14)" stroke="none" d="M 20200,15400 C 19800,14900 19127,15011 19200,14800 19197,14798 19203,14402 19200,14400 L 19400,14400 19600,14500 C 19700,15000 20741,15065 20700,15300 L 20200,15400 Z"/>
       <path fill="none" stroke="rgb(0,0,0)" stroke-width="100" stroke-linejoin="round" d="M 20200,15400 C 19800,14900 19127,15011 19200,14800 19197,14798 19203,14402 19200,14400 L 19400,14400 19600,14500 C 19700,15000 20741,15065 20700,15300 L 20200,15400 Z"/>
      </g>
     </g>
     <g class="com.sun.star.drawing.ClosedBezierShape">
      <g id="id53">
       <path fill="rgb(255,149,14)" stroke="none" d="M 18100,16800 C 18213,16221 17827,14811 17900,14600 17897,14598 17803,14402 17800,14400 L 18100,14400 18200,14600 C 18100,15100 18641,16465 18600,16700 L 18100,16800 Z"/>
       <path fill="none" stroke="rgb(0,0,0)" stroke-width="100" stroke-linejoin="round" d="M 18100,16800 C 18213,16221 17827,14811 17900,14600 17897,14598 17803,14402 17800,14400 L 18100,14400 18200,14600 C 18100,15100 18641,16465 18600,16700 L 18100,16800 Z"/>
      </g>
     </g>
    </g>
   </g>
  </g>
 </g>
</svg>